<svg data-v-423bf9ae="" xmlns="http://www.w3.org/2000/svg" viewBox="0 0 610.348514748478 60" class="font"><!----><!----><!----><g data-v-423bf9ae="" id="f76c9fe2-fa08-47ce-b7fb-4b5d4f685183" fill="white" transform="matrix(5.623242193836833,0,0,5.623242193836833,1.7994314837248453,-21.70571466531969)"><path d="M10.91 5.04Q11.48 5.04 11.48 5.40L11.48 5.40Q11.48 5.50 11.47 5.54L11.47 5.54Q11.42 5.68 11.34 5.76Q11.26 5.84 11.10 5.94L11.10 5.94Q10.89 6.06 10.75 6.22Q10.61 6.37 10.51 6.69L10.51 6.69L8.78 12.91Q8.54 13.75 8.18 14.08Q7.83 14.42 7.20 14.42L7.20 14.42Q6.64 14.42 6.27 14.09Q5.89 13.76 5.57 13.08L5.57 13.08L3.46 8.62L2.28 12.71Q2.24 12.89 2.24 13.03L2.24 13.03Q2.24 13.22 2.30 13.34Q2.37 13.45 2.48 13.58L2.48 13.58Q2.63 13.76 2.63 13.89L2.63 13.89Q2.63 13.97 2.62 14.01L2.62 14.01Q2.56 14.21 2.37 14.29Q2.17 14.36 1.78 14.36L1.78 14.36L0.25 14.36Q-0.32 14.36-0.32 14L-0.32 14Q-0.32 13.90-0.31 13.86L-0.31 13.86Q-0.27 13.72-0.18 13.64Q-0.10 13.57 0.06 13.47L0.06 13.47Q0.27 13.34 0.41 13.19Q0.55 13.03 0.64 12.71L0.64 12.71L2.42 6.43L2.20 5.96Q2.06 5.68 2.06 5.47L2.06 5.47Q2.06 5.04 2.62 5.04L2.62 5.04L4.69 5.04Q5.14 5.04 5.37 5.24Q5.60 5.45 5.87 5.96L5.87 5.96L7.91 10.07L8.88 6.69Q8.92 6.50 8.92 6.37L8.92 6.37Q8.92 6.19 8.86 6.07Q8.79 5.95 8.68 5.82L8.68 5.82Q8.53 5.64 8.53 5.52L8.53 5.52Q8.53 5.43 8.54 5.39L8.54 5.39Q8.60 5.19 8.79 5.12Q8.99 5.04 9.38 5.04L9.38 5.04L10.91 5.04ZM15.18 6.96Q16.79 6.96 17.75 7.55Q18.72 8.15 18.72 9.37L18.72 9.37Q18.72 9.83 18.55 10.42L18.55 10.42L17.98 12.35Q17.96 12.40 17.96 12.49L17.96 12.49Q17.96 12.71 18.14 12.71L18.14 12.71Q18.31 12.71 18.43 12.57Q18.55 12.42 18.59 12.42L18.59 12.42Q18.66 12.42 18.71 12.52Q18.76 12.61 18.76 12.74L18.76 12.74Q18.77 13.12 18.47 13.51Q18.17 13.90 17.67 14.15Q17.16 14.41 16.56 14.41L16.56 14.41Q15.83 14.41 15.32 14.14Q14.80 13.87 14.60 13.36L14.60 13.36Q14.18 13.86 13.61 14.13Q13.03 14.41 12.38 14.41L12.38 14.41Q11.63 14.41 11.13 14.12Q10.63 13.83 10.38 13.38Q10.14 12.92 10.14 12.42L10.14 12.42Q10.14 12.19 10.18 11.98L10.18 11.98Q10.40 11.02 11.15 10.53Q11.90 10.04 12.94 10.04L12.94 10.04Q14.10 10.04 15.22 10.40L15.22 10.40L15.57 9.48Q15.75 8.89 15.75 8.57L15.75 8.57Q15.74 8.23 15.53 8.06Q15.32 7.90 14.88 7.90L14.88 7.90Q14.97 8.12 14.97 8.36L14.97 8.36Q14.97 8.88 14.57 9.25Q14.18 9.63 13.45 9.63L13.45 9.63Q12.77 9.63 12.38 9.33Q12.00 9.03 12.00 8.58L12.00 8.58Q12.00 7.88 12.78 7.42Q13.57 6.96 15.18 6.96L15.18 6.96ZM14.39 11.20Q14 11.20 13.76 11.50Q13.51 11.80 13.51 12.15L13.51 12.15Q13.51 12.38 13.62 12.52Q13.72 12.66 13.92 12.66L13.92 12.66Q14.10 12.66 14.32 12.51Q14.53 12.36 14.63 12.07L14.63 12.07L14.92 11.24Q14.69 11.20 14.39 11.20L14.39 11.20ZM24.33 6.96Q25.94 6.96 26.91 7.55Q27.87 8.15 27.87 9.37L27.87 9.37Q27.87 9.83 27.71 10.42L27.71 10.42L27.13 12.35Q27.12 12.40 27.12 12.49L27.12 12.49Q27.12 12.71 27.30 12.71L27.30 12.71Q27.47 12.71 27.59 12.57Q27.71 12.42 27.75 12.42L27.75 12.42Q27.82 12.42 27.87 12.52Q27.92 12.61 27.92 12.74L27.92 12.74Q27.93 13.12 27.63 13.51Q27.33 13.90 26.82 14.15Q26.32 14.41 25.72 14.41L25.72 14.41Q24.99 14.41 24.47 14.14Q23.95 13.87 23.76 13.36L23.76 13.36Q23.34 13.86 22.76 14.13Q22.19 14.41 21.53 14.41L21.53 14.41Q20.79 14.41 20.29 14.12Q19.78 13.83 19.54 13.38Q19.29 12.92 19.29 12.42L19.29 12.42Q19.29 12.19 19.33 11.98L19.33 11.98Q19.56 11.02 20.31 10.53Q21.06 10.04 22.09 10.04L22.09 10.04Q23.25 10.04 24.37 10.40L24.37 10.40L24.72 9.48Q24.91 8.89 24.91 8.57L24.91 8.57Q24.89 8.23 24.68 8.06Q24.47 7.90 24.04 7.90L24.04 7.90Q24.12 8.12 24.12 8.36L24.12 8.36Q24.12 8.88 23.73 9.25Q23.34 9.63 22.61 9.63L22.61 9.63Q21.92 9.63 21.54 9.33Q21.15 9.03 21.15 8.58L21.15 8.58Q21.15 7.88 21.94 7.42Q22.72 6.96 24.33 6.96L24.33 6.96ZM23.55 11.20Q23.16 11.20 22.91 11.50Q22.67 11.80 22.67 12.15L22.67 12.15Q22.67 12.38 22.77 12.52Q22.88 12.66 23.07 12.66L23.07 12.66Q23.25 12.66 23.47 12.51Q23.69 12.36 23.79 12.07L23.79 12.07L24.08 11.24Q23.84 11.20 23.55 11.20L23.55 11.20ZM41.36 8.95Q41.36 10.19 40.49 11.49Q39.62 12.80 38.30 13.64Q36.97 14.49 35.70 14.49L35.70 14.49Q34.69 14.49 33.99 14.14Q33.29 13.79 33.08 13.13L33.08 13.13Q32.56 13.76 31.93 14.08Q31.30 14.41 30.62 14.41L30.62 14.41Q29.67 14.41 29.07 13.94Q28.48 13.47 28.48 12.56L28.48 12.56Q28.48 12.08 28.63 11.58L28.63 11.58L29.41 8.83Q29.44 8.72 29.44 8.67L29.44 8.67Q29.44 8.53 29.37 8.43Q29.30 8.33 29.18 8.22L29.18 8.22Q28.97 8.04 28.97 7.90L28.97 7.90Q28.95 7.70 29.20 7.48Q29.46 7.25 29.91 7.11Q30.37 6.96 30.94 6.96L30.94 6.96Q31.88 6.96 32.40 7.41Q32.93 7.87 32.93 8.60L32.93 8.60Q32.93 8.92 32.82 9.30L32.82 9.30L32.10 11.68Q32.05 11.87 32.05 11.94L32.05 11.94Q32.05 12.12 32.15 12.22Q32.26 12.32 32.44 12.32L32.44 12.32Q32.69 12.32 32.87 12.15Q33.04 11.97 33.21 11.58L33.21 11.58L34.01 8.83Q34.03 8.72 34.03 8.67L34.03 8.67Q34.03 8.53 33.96 8.43Q33.89 8.33 33.77 8.22L33.77 8.22Q33.56 8.04 33.56 7.90L33.56 7.90Q33.54 7.70 33.80 7.48Q34.05 7.25 34.50 7.11Q34.96 6.96 35.53 6.96L35.53 6.96Q36.48 6.96 37.00 7.41Q37.52 7.85 37.52 8.60L37.52 8.60Q37.52 8.89 37.41 9.30L37.41 9.30L36.50 12.29Q36.47 12.36 36.47 12.50L36.47 12.50Q36.47 12.68 36.60 12.78Q36.72 12.88 36.95 12.88L36.95 12.88Q37.25 12.88 37.67 12.61Q38.08 12.33 38.48 11.82Q38.88 11.31 39.13 10.61L39.13 10.61Q38.57 10.12 38.34 9.65Q38.11 9.17 38.11 8.67L38.11 8.67Q38.11 7.95 38.50 7.46Q38.89 6.96 39.63 6.96L39.63 6.96Q40.38 6.96 40.87 7.49Q41.36 8.02 41.36 8.95L41.36 8.95ZM44.83 6.96Q45.64 6.96 46.02 7.27Q46.40 7.57 46.40 8.11L46.40 8.11Q46.40 8.43 46.30 8.72L46.30 8.72L45.01 12.91Q44.97 13.08 44.97 13.20L44.97 13.20Q44.97 13.38 45.04 13.49Q45.11 13.59 45.23 13.69L45.23 13.69Q45.33 13.79 45.37 13.85Q45.42 13.92 45.39 14.01L45.39 14.01Q45.32 14.20 45.11 14.28Q44.90 14.36 44.46 14.36L44.46 14.36L41.27 14.36Q40.91 14.36 40.74 14.25Q40.57 14.13 40.63 13.93L40.63 13.93Q40.68 13.76 40.92 13.64L40.92 13.64Q41.13 13.52 41.27 13.37Q41.41 13.22 41.51 12.88L41.51 12.88L42.73 8.83Q42.77 8.71 42.77 8.62L42.77 8.62Q42.77 8.47 42.70 8.38Q42.63 8.29 42.49 8.19L42.49 8.19Q42.35 8.08 42.29 7.99Q42.24 7.91 42.28 7.77L42.28 7.77Q42.36 7.45 43.16 7.20Q43.96 6.96 44.83 6.96L44.83 6.96ZM45.77 3.86Q46.31 3.86 46.68 4.22Q47.04 4.58 47.04 5.10L47.04 5.10Q47.04 5.46 46.85 5.81Q46.66 6.16 46.32 6.38Q45.98 6.59 45.56 6.59L45.56 6.59Q45.02 6.59 44.67 6.24Q44.31 5.88 44.30 5.35L44.30 5.35Q44.30 5.00 44.48 4.66Q44.66 4.31 45.00 4.09Q45.33 3.86 45.77 3.86L45.77 3.86ZM48.06 9.44Q48.16 9.03 48.47 8.81Q48.78 8.58 49.22 8.58L49.22 8.58L52.49 8.58Q53.26 8.58 53.26 9.18L53.26 9.18Q53.26 9.34 53.23 9.44L53.23 9.44Q52.96 10.29 52.05 10.29L52.05 10.29L48.79 10.29Q48.41 10.29 48.22 10.14Q48.02 10.00 48.02 9.72L48.02 9.72Q48.02 9.58 48.06 9.44L48.06 9.44ZM61.10 4.83Q62.86 4.83 63.85 5.66Q64.85 6.50 64.85 8.06L64.85 8.06Q64.85 8.81 64.62 9.66L64.62 9.66Q64.20 11.23 63.32 12.32Q62.44 13.41 61.22 13.97Q60.00 14.53 58.58 14.53L58.58 14.53Q56.83 14.53 55.83 13.70Q54.84 12.87 54.84 11.30L54.84 11.30Q54.84 10.58 55.08 9.66L55.08 9.66Q55.48 8.11 56.36 7.02Q57.23 5.94 58.44 5.38Q59.65 4.83 61.10 4.83L61.10 4.83ZM60.84 6.20Q60.42 6.20 60.09 6.54Q59.75 6.87 59.42 7.64Q59.09 8.40 58.72 9.76L58.72 9.76Q58.16 11.72 58.16 12.46L58.16 12.46Q58.16 12.89 58.31 13.09Q58.46 13.29 58.80 13.29L58.80 13.29Q59.22 13.29 59.56 12.94Q59.89 12.60 60.21 11.84Q60.54 11.09 60.93 9.76L60.93 9.76Q61.47 7.83 61.47 7.04L61.47 7.04Q61.47 6.59 61.32 6.40Q61.17 6.20 60.84 6.20L60.84 6.20ZM69.96 6.96Q71.86 6.96 72.77 7.73Q73.67 8.50 73.67 9.74L73.67 9.74Q73.67 10.16 73.56 10.68L73.56 10.68Q73.29 11.83 72.56 12.69Q71.83 13.55 70.78 14.02Q69.72 14.49 68.49 14.49L68.49 14.49Q66.54 14.49 65.61 13.71Q64.68 12.94 64.68 11.65L64.68 11.65Q64.68 11.21 64.79 10.68L64.79 10.68Q65.06 9.59 65.81 8.74Q66.56 7.90 67.64 7.43Q68.73 6.96 69.96 6.96L69.96 6.96ZM69.92 8.20Q69.62 8.20 69.29 8.73Q68.96 9.25 68.52 10.71L68.52 10.71Q68.07 12.17 68.07 12.75L68.07 12.75Q68.07 13.06 68.17 13.17Q68.26 13.27 68.43 13.27L68.43 13.27Q68.73 13.30 69.04 12.77Q69.36 12.24 69.83 10.70L69.83 10.70Q70.27 9.34 70.27 8.72L70.27 8.72Q70.27 8.43 70.18 8.32Q70.08 8.20 69.92 8.20L69.92 8.20ZM81.55 12.35Q81.52 12.46 81.52 12.50L81.52 12.50Q81.52 12.60 81.58 12.66Q81.63 12.71 81.72 12.71L81.72 12.71Q81.89 12.71 82.01 12.57Q82.12 12.42 82.17 12.42L82.17 12.42Q82.24 12.42 82.28 12.52Q82.32 12.61 82.32 12.74L82.32 12.74Q82.33 13.12 82.03 13.51Q81.73 13.90 81.23 14.15Q80.72 14.41 80.14 14.41L80.14 14.41Q79.44 14.41 78.92 14.14Q78.40 13.87 78.20 13.44L78.20 13.44Q77.83 13.93 77.34 14.17Q76.85 14.41 76.30 14.41L76.30 14.41Q75.66 14.41 75.10 14.08Q74.55 13.76 74.22 13.17Q73.89 12.57 73.89 11.82L73.89 11.82Q73.89 10.54 74.38 9.42Q74.86 8.29 75.73 7.60Q76.59 6.90 77.70 6.90L77.70 6.90Q78.30 6.90 78.73 7.04Q79.16 7.18 79.51 7.46L79.51 7.46L79.98 5.89Q80.02 5.77 80.02 5.68L80.02 5.68Q80.02 5.53 79.95 5.43Q79.87 5.33 79.74 5.24L79.74 5.24Q79.60 5.12 79.54 5.04Q79.48 4.96 79.52 4.82L79.52 4.82Q79.60 4.49 80.40 4.26Q81.20 4.02 82.07 4.02L82.07 4.02Q82.88 4.02 83.27 4.33Q83.65 4.63 83.65 5.17L83.65 5.17Q83.65 5.47 83.55 5.77L83.55 5.77L81.55 12.35ZM79.21 8.41Q78.99 8.22 78.72 8.22L78.72 8.22Q78.32 8.22 77.92 8.82Q77.53 9.42 77.29 10.28Q77.06 11.13 77.07 11.82L77.07 11.82Q77.07 12.59 77.57 12.59L77.57 12.59Q77.76 12.59 77.88 12.44Q78.01 12.29 78.12 11.96L78.12 11.96L79.21 8.41ZM86.52 6.89Q88.30 6.89 89.10 7.46Q89.89 8.02 89.89 8.90L89.89 8.90Q89.89 9.17 89.84 9.39L89.84 9.39Q89.63 10.32 88.67 10.72Q87.71 11.12 86.41 11.12L86.41 11.12Q85.75 11.12 85.18 11.03L85.18 11.03Q85.16 11.76 85.57 12.05Q85.97 12.35 86.70 12.35L86.70 12.35Q87.04 12.35 87.35 12.27Q87.65 12.19 88.13 12.04L88.13 12.04Q88.52 11.90 88.66 11.90L88.66 11.90Q88.82 11.90 88.82 12.08L88.82 12.08Q88.83 12.57 88.45 13.11Q88.07 13.65 87.33 14.03Q86.59 14.41 85.54 14.41L85.54 14.41Q83.99 14.41 82.99 13.62Q82.00 12.84 82.00 11.34L82.00 11.34Q82.00 10.92 82.11 10.36L82.11 10.36Q82.46 8.64 83.64 7.76Q84.83 6.89 86.52 6.89L86.52 6.89ZM85.27 10.19Q85.33 10.21 85.43 10.21L85.43 10.21Q86.02 10.21 86.32 9.66Q86.63 9.11 86.62 8.44L86.62 8.44Q86.60 8.05 86.39 8.05L86.39 8.05Q86.24 8.05 86.03 8.30Q85.82 8.54 85.62 9.03Q85.41 9.52 85.27 10.19L85.27 10.19ZM99.13 9.67L98.28 12.43Q98.25 12.49 98.25 12.60L98.25 12.60Q98.25 12.70 98.30 12.75Q98.35 12.81 98.43 12.81L98.43 12.81Q98.60 12.81 98.72 12.66Q98.84 12.52 98.88 12.52L98.88 12.52Q98.95 12.52 98.99 12.61Q99.04 12.70 99.04 12.82L99.04 12.82Q99.05 13.23 98.77 13.62Q98.49 14 97.95 14.25Q97.41 14.49 96.66 14.49L96.66 14.49Q95.73 14.49 95.19 14.06Q94.64 13.64 94.63 12.92L94.63 12.92Q94.63 12.40 94.88 11.76L94.88 11.76L95.65 9.74Q95.72 9.56 95.72 9.45L95.72 9.45Q95.72 9.27 95.60 9.16Q95.48 9.06 95.31 9.06L95.31 9.06Q95.00 9.06 94.72 9.35Q94.44 9.63 94.32 10.05L94.32 10.05L93.45 12.91Q93.39 13.06 93.39 13.20L93.39 13.20Q93.39 13.37 93.46 13.48Q93.53 13.58 93.66 13.69L93.66 13.69Q93.76 13.78 93.80 13.85Q93.84 13.92 93.81 14.01L93.81 14.01Q93.76 14.20 93.55 14.28Q93.34 14.36 92.89 14.36L92.89 14.36L89.70 14.36Q89.33 14.36 89.17 14.25Q89.01 14.13 89.05 13.93L89.05 13.93Q89.11 13.76 89.35 13.64L89.35 13.64Q89.56 13.52 89.70 13.37Q89.84 13.22 89.94 12.88L89.94 12.88L91.18 8.83Q91.21 8.76 91.21 8.64L91.21 8.64Q91.21 8.48 91.15 8.40Q91.08 8.32 90.94 8.19L90.94 8.19Q90.80 8.08 90.75 7.99Q90.69 7.91 90.73 7.77L90.73 7.77Q90.82 7.45 91.62 7.20Q92.41 6.96 93.28 6.96L93.28 6.96Q93.98 6.96 94.39 7.34Q94.79 7.73 94.75 8.41L94.75 8.41Q95.33 7.59 95.97 7.27Q96.61 6.96 97.37 6.96L97.37 6.96Q98.22 6.96 98.75 7.48Q99.27 7.99 99.27 8.82L99.27 8.82Q99.27 9.25 99.13 9.67L99.13 9.67ZM104.64 6.96Q106.25 6.96 107.21 7.55Q108.18 8.15 108.18 9.37L108.18 9.37Q108.18 9.83 108.01 10.42L108.01 10.42L107.44 12.35Q107.42 12.40 107.42 12.49L107.42 12.49Q107.42 12.71 107.60 12.71L107.60 12.71Q107.77 12.71 107.89 12.57Q108.01 12.42 108.05 12.42L108.05 12.42Q108.12 12.42 108.17 12.52Q108.22 12.61 108.22 12.74L108.22 12.74Q108.23 13.12 107.93 13.51Q107.63 13.90 107.13 14.15Q106.62 14.41 106.02 14.41L106.02 14.41Q105.29 14.41 104.78 14.14Q104.26 13.87 104.06 13.36L104.06 13.36Q103.64 13.86 103.07 14.13Q102.49 14.41 101.84 14.41L101.84 14.41Q101.09 14.41 100.59 14.12Q100.09 13.83 99.84 13.38Q99.60 12.92 99.60 12.42L99.60 12.42Q99.60 12.19 99.64 11.98L99.64 11.98Q99.86 11.02 100.61 10.53Q101.36 10.04 102.40 10.04L102.40 10.04Q103.56 10.04 104.68 10.40L104.68 10.40L105.03 9.48Q105.21 8.89 105.21 8.57L105.21 8.57Q105.20 8.23 104.99 8.06Q104.78 7.90 104.34 7.90L104.34 7.90Q104.43 8.12 104.43 8.36L104.43 8.36Q104.43 8.88 104.03 9.25Q103.64 9.63 102.91 9.63L102.91 9.63Q102.23 9.63 101.84 9.33Q101.46 9.03 101.46 8.58L101.46 8.58Q101.46 7.88 102.24 7.42Q103.03 6.96 104.64 6.96L104.64 6.96ZM103.85 11.20Q103.46 11.20 103.22 11.50Q102.97 11.80 102.97 12.15L102.97 12.15Q102.97 12.38 103.08 12.52Q103.18 12.66 103.38 12.66L103.38 12.66Q103.56 12.66 103.78 12.51Q103.99 12.36 104.09 12.07L104.09 12.07L104.38 11.24Q104.15 11.20 103.85 11.20L103.85 11.20Z"></path></g><!----><!----></svg>